<svg xmlns="http://www.w3.org/2000/svg" width="131" height="35" id="iola" viewBox="0 0 131 35" fill="none"><g clip-path="url(#clip0_1_44)"><path fill-rule="evenodd" clip-rule="evenodd" d="M116.97 33.465L105.863 13.238L103.426 17.675L102.051 20.151L109.926 34.464C110.012 34.6297 110.143 34.768 110.304 34.8631C110.465 34.9582 110.649 35.0063 110.836 35.002H116.069C116.25 35.0053 116.428 34.9607 116.586 34.8729C116.744 34.7851 116.876 34.6572 116.969 34.502C117.06 34.3444 117.108 34.1657 117.108 33.9836C117.108 33.8016 117.061 33.6228 116.97 33.465V33.465Z" fill="white"></path><path fill-rule="evenodd" clip-rule="evenodd" d="M101.835 5.90998L101.769 5.80999V5.78399L98.883 0.563988C98.8199 0.439366 98.7315 0.329331 98.6234 0.240975C98.5152 0.152619 98.3896 0.087901 98.2549 0.0509876C98.2419 0.0389876 98.2419 0.0509876 98.2289 0.0509876C98.094 0.083186 97.9678 0.144665 97.8593 0.231072C97.7508 0.317479 97.6626 0.426698 97.601 0.550988L94.715 5.77099V5.80999L94.65 5.90998L94.227 6.69598L88.0049 17.996L86.5941 20.55L85.994 21.65H93.5991L95.7921 17.674L98.241 13.211L98.254 13.237L101.717 6.92599L102.05 6.32598L101.835 5.90998Z" fill="white"></path><path fill-rule="evenodd" clip-rule="evenodd" d="M66.555 1.04102V21.355C66.5555 21.7124 66.4653 22.064 66.293 22.377L61.354 31.345L59.942 33.9L59.894 33.986V1.04801C59.894 0.909874 59.9213 0.773113 59.9743 0.645571C60.0274 0.518029 60.1051 0.402221 60.203 0.304827C60.301 0.207432 60.4172 0.130363 60.5451 0.0780506C60.6729 0.0257379 60.8098 -0.000773645 60.948 1.71847e-05H65.525C65.661 0.000671918 65.7955 0.028115 65.9209 0.0807972C66.0463 0.133479 66.1601 0.21036 66.2558 0.307039C66.3514 0.403719 66.4271 0.518304 66.4784 0.644243C66.5298 0.770183 66.5558 0.905015 66.555 1.04102V1.04102Z" fill="white"></path><path fill-rule="evenodd" clip-rule="evenodd" d="M89.932 28.316L86.557 34.459C86.4713 34.625 86.3408 34.7636 86.1803 34.8593C86.0198 34.9549 85.8358 35.0036 85.649 35H66.949L69.139 31.026L70.468 28.603C70.5108 28.5239 70.5742 28.4578 70.6515 28.4117C70.7288 28.3656 70.817 28.3411 70.907 28.341H82.33L82.344 28.313L89.932 28.316Z" fill="white"></path><path fill-rule="evenodd" clip-rule="evenodd" d="M48.859 24.586C48.8507 25.5777 48.453 26.5265 47.7517 27.2277C47.0504 27.929 46.1017 28.3267 45.11 28.335H21.466C20.4737 28.3269 19.5243 27.9295 18.8222 27.2283C18.1201 26.5271 17.7214 25.5782 17.712 24.586V23.913H11.05V24.586C11.0574 27.3451 12.1561 29.9892 14.1064 31.941C16.0566 33.8927 18.6999 34.9935 21.459 35.003H45.11C47.8691 34.9938 50.5126 33.8936 52.4636 31.9426C54.4146 29.9916 55.5148 27.3481 55.524 24.589V23.916H48.859V24.586Z" fill="white"></path><path fill-rule="evenodd" clip-rule="evenodd" d="M45.109 0.00799561H21.465C18.7053 0.0164302 16.0609 1.1162 14.1091 3.06726C12.1573 5.01833 11.0565 7.66226 11.047 10.422V17.496H17.715V10.422C17.7241 9.43148 18.1214 8.48406 18.8214 7.78325C19.5215 7.08244 20.4685 6.68417 21.459 6.674H45.11C46.1013 6.68312 47.0494 7.08089 47.7505 7.78178C48.4516 8.48267 48.8496 9.4307 48.859 10.422V17.496H55.525V10.422C55.5158 7.66253 54.4154 5.01874 52.4639 3.06767C50.5125 1.11661 47.8685 0.0166952 45.109 0.00799561Z" fill="white"></path><path fill-rule="evenodd" clip-rule="evenodd" d="M5.624 0.00599351H1.044C0.907471 0.00533549 0.772149 0.0315941 0.645775 0.083264C0.519401 0.134934 0.404453 0.211004 0.307495 0.307126C0.210537 0.403248 0.133473 0.517538 0.0807114 0.64346C0.0279492 0.769382 0.000524032 0.904469 0 1.041V6.66499H6.668V1.041C6.66668 0.765345 6.55597 0.501488 6.36021 0.307416C6.16445 0.113344 5.89965 0.00493012 5.624 0.00599351V0.00599351Z" fill="white"></path><path fill-rule="evenodd" clip-rule="evenodd" d="M0 33.952C0.00105358 34.2286 0.111386 34.4935 0.306946 34.6891C0.502506 34.8846 0.767437 34.9949 1.044 34.996H5.624C5.90056 34.9949 6.16549 34.8846 6.36105 34.6891C6.55661 34.4935 6.66695 34.2286 6.668 33.952V17.495H0V33.952Z" fill="white"></path></g><g clip-path="url(#clip1_1_44)"><path d="M123.676 0.0314844C125.457 -0.056764 127.26 0.573441 128.594 1.75446C129.609 2.63563 130.359 3.81731 130.723 5.1102C131.104 6.45689 131.068 7.91873 130.614 9.24311C130.203 10.4602 129.444 11.5569 128.452 12.3751C127.374 13.2733 126.018 13.8356 124.618 13.955C123.14 14.0932 121.621 13.7405 120.356 12.9643C119.256 12.2951 118.348 11.3174 117.762 10.1722C116.835 8.3826 116.75 6.18624 117.533 4.32941C118.006 3.19235 118.788 2.18717 119.77 1.44346C120.888 0.590828 122.271 0.0902073 123.676 0.0314844ZM123.544 1.01271C121.878 1.12524 120.284 1.98213 119.259 3.29667C118.534 4.21098 118.088 5.34148 117.993 6.50347C117.924 7.25735 118.014 8.02371 118.231 8.74839C118.66 10.1689 119.64 11.4136 120.919 12.1681C121.992 12.8111 123.272 13.1031 124.517 12.9899C125.766 12.8843 126.976 12.3722 127.922 11.5507C128.841 10.7624 129.514 9.68993 129.817 8.51777C130.123 7.36135 130.067 6.11341 129.661 4.98783C129.205 3.7015 128.292 2.58445 127.124 1.87584C126.061 1.223 124.788 0.913968 123.544 1.01271Z" fill="white"></path><path d="M119.33 4.11322C120.314 4.11157 121.299 4.11322 122.283 4.11223C122.357 4.1119 122.431 4.11617 122.505 4.12142C122.504 4.4439 122.505 4.76638 122.505 5.08887C122.137 5.08854 121.77 5.08624 121.402 5.09018C121.407 6.77609 121.403 8.46199 121.404 10.1479C121.078 10.1489 120.753 10.1479 120.428 10.1486C120.43 9.0128 120.428 7.87706 120.429 6.74164C120.425 6.18886 120.437 5.63607 120.422 5.08362C120.058 5.09543 119.692 5.08362 119.327 5.08887C119.319 4.76376 119.316 4.438 119.33 4.11322Z" fill="white"></path><path d="M123.324 4.12372C123.676 4.12733 124.028 4.12405 124.381 4.12536C124.87 5.50321 125.364 6.8791 125.853 8.25696C125.873 8.31076 125.895 8.36358 125.919 8.41607C126.423 6.98408 126.934 5.55505 127.442 4.12437C127.794 4.12667 128.146 4.12405 128.498 4.12536C128.499 6.13276 128.501 8.14017 128.497 10.1476C128.174 10.1673 127.85 10.1522 127.526 10.1571C127.522 9.03938 127.528 7.92168 127.523 6.8043C127.124 7.91873 126.731 9.03512 126.332 10.1495C126.058 10.1449 125.784 10.1518 125.511 10.1469L125.491 10.1322C125.226 9.40058 124.968 8.66671 124.706 7.93415C124.568 7.56639 124.451 7.19076 124.303 6.82727C124.291 7.93382 124.299 9.04102 124.299 10.1479C123.974 10.163 123.648 10.1607 123.323 10.1502C123.325 8.14148 123.323 6.13244 123.324 4.12372Z" fill="white"></path></g><defs><clipPath id="clip0_1_44"><rect width="117.107" height="35" fill="white"></rect></clipPath><clipPath id="clip1_1_44"><rect width="14" height="14" fill="white" transform="translate(117)"></rect></clipPath></defs></svg>